<?xml version="1.0" encoding="UTF-8"?>
<svg id="Layer_1" xmlns="http://www.w3.org/2000/svg" version="1.1" viewBox="0 0 288 70.9">
  <!-- Generator: Adobe Illustrator 29.0.1, SVG Export Plug-In . SVG Version: 2.1.0 Build 192)  -->
  <defs>
    <style>
      .st0 {
        fill: #f05237;
      }
    </style>
  </defs>
  <g id="Isolation_Mode">
    <g>
      <g id="GROQ_LOGO">
        <g id="Layer_2-2-2">
          <path d="M91.4,15.2c-10.6,0-19.1,8.6-19.1,19.1s8.6,19.1,19.1,19.1,19.1-8.6,19.1-19.1h0c0-10.5-8.6-19.1-19.1-19.1ZM91.4,46.2c-6.6,0-11.9-5.3-11.9-11.9s5.3-11.9,11.9-11.9,11.9,5.3,11.9,11.9h0c0,6.6-5.3,11.9-11.9,11.9h0Z"/>
          <path d="M65,15.3c-.7-.1-1.3-.1-2-.1h-1c-.3,0-.6,0-1,.1-1.3.1-2.6.3-3.8.7-2.6.7-4.9,1.9-7,3.5-2.1,1.7-3.8,3.8-5,6.3-.6,1.2-1,2.5-1.3,3.8,0,.7-.2,1.3-.3,2,0,.3,0,.7,0,1v20.2h7.5v-20.5c0-.4,0-.8.2-1.2.2-.8.4-1.5.7-2.2.7-1.4,1.6-2.7,2.9-3.7,1.3-1,2.8-1.8,4.3-2.2.8-.2,1.6-.4,2.5-.4h1.2c.4,0,.8,0,1.2.1,1.6.2,3.2.7,4.6,1.5l3.6-6.2c-2-1.6-4.6-2.4-7.2-2.7Z"/>
          <path d="M19.3,15.1C8.7,15,.1,23.5,0,34s8.4,19.2,18.9,19.3h6.6v-7.2h-6.3c-6.6,0-12-5.2-12.1-11.8s5.2-12,11.8-12.1h.3c6.6,0,11.9,5.3,12,11.9h0v17.6h0c0,6.5-5.3,11.9-11.9,11.9s-6.1-1.3-8.3-3.5l-5,5.2c3.5,3.5,8.3,5.5,13.2,5.6h.3c10.4-.2,18.8-8.6,18.8-19v-18.2c-.2-10.3-8.7-18.6-19-18.6Z"/>
          <path d="M133.6,15.2c-10.6,0-19.1,8.6-19.1,19.1s8.6,19.1,19.1,19.1h6.5v-7.2h-6.5c-6.6,0-11.9-5.3-11.9-11.9s5.3-11.9,11.9-11.9,11.4,4.7,11.9,10.9h0v36.7h7.2v-35.7h0c0-10.5-8.6-19.1-19.1-19.1Z"/>
        </g>
      </g>
      <g>
        <path class="st0" d="M165.5,0h3.6v53.5h-3.6V0Z"/>
        <path class="st0" d="M204.1,19.1c2.5,2.4,3.7,5.9,3.7,10.5v23.9h-3.5v-6.7c-1.2,2.2-3,3.9-5.3,5.2-2.3,1.2-5.1,1.8-8.3,1.8s-7.5-1-9.9-3-3.6-4.6-3.6-7.8,1.1-5.7,3.4-7.6c2.2-1.9,5.8-2.9,10.7-2.9h12.9v-3c0-3.5-1-6.2-2.8-8-1.9-1.8-4.7-2.7-8.3-2.7s-4.9.4-7.2,1.3-4.2,2-5.8,3.5l-1.8-2.6c1.9-1.7,4.1-3,6.8-3.9,2.6-.9,5.4-1.4,8.3-1.4,4.7,0,8.2,1.1,10.7,3.4ZM199.3,48.7c2.2-1.4,3.8-3.5,4.9-6.3v-7.1h-12.8c-3.7,0-6.4.7-8,2-1.7,1.3-2.5,3.2-2.5,5.6s.9,4.4,2.7,5.8c1.8,1.4,4.4,2.1,7.7,2.1s5.9-.7,8-2.1Z"/>
        <path class="st0" d="M245.9,18c2.8,1.6,5.1,3.9,6.7,6.8,1.6,2.9,2.4,6.2,2.4,9.9s-.8,7-2.4,9.9c-1.6,2.9-3.8,5.1-6.7,6.8-2.8,1.6-6,2.5-9.5,2.5s-6.4-.8-9.1-2.4c-2.7-1.6-4.8-3.9-6.3-6.7v8.9h-3.5V0h3.6v24.4c1.5-2.8,3.6-5,6.3-6.5,2.7-1.6,5.7-2.3,9-2.3,3.5,0,6.7.8,9.5,2.4ZM243.9,48.5c2.3-1.3,4.1-3.2,5.4-5.6,1.3-2.4,2-5.1,2-8.2s-.7-5.8-2-8.2-3.1-4.3-5.4-5.6c-2.3-1.3-4.9-2-7.8-2s-5.5.7-7.8,2-4.1,3.2-5.4,5.6c-1.3,2.4-2,5.1-2,8.2s.7,5.8,2,8.2,3.1,4.3,5.4,5.6c2.3,1.3,4.9,2,7.8,2s5.5-.6,7.8-2Z"/>
        <path class="st0" d="M264.5,52.4c-2.7-.9-4.9-2.1-6.4-3.5l1.7-2.9c1.5,1.3,3.5,2.4,5.9,3.2,2.4.9,5,1.3,7.6,1.3,3.8,0,6.6-.6,8.4-1.9,1.8-1.2,2.7-3,2.7-5.2s-.5-2.8-1.5-3.7-2.2-1.6-3.6-2-3.4-.9-6-1.4c-3-.5-5.4-1.1-7.2-1.7-1.8-.6-3.4-1.6-4.7-3-1.3-1.4-1.9-3.3-1.9-5.8s1.2-5.4,3.7-7.4c2.5-1.9,6-2.9,10.6-2.9s4.8.3,7.1,1c2.4.7,4.3,1.6,5.8,2.7l-1.7,2.9c-1.5-1.1-3.3-1.9-5.3-2.5s-4-.9-6.1-.9c-3.5,0-6.2.6-7.9,1.9-1.8,1.3-2.7,3-2.7,5.1s.5,3,1.5,3.9,2.2,1.6,3.7,2.1,3.5.9,6.2,1.5c2.9.5,5.3,1.1,7.1,1.7,1.8.6,3.3,1.6,4.6,2.9,1.2,1.3,1.9,3.2,1.9,5.6s-1.3,5.6-3.9,7.5-6.3,2.8-11,2.8c-3,.1-5.9-.4-8.6-1.3Z"/>
      </g>
    </g>
  </g>
</svg>